<?xml version="1.0" standalone="no"?>
<!DOCTYPE svg PUBLIC "-//W3C//DTD SVG 20010904//EN" "http://www.w3.org/TR/2001/REC-SVG-20010904/DTD/svg10.dtd">
<svg xmlns="http://www.w3.org/2000/svg" version="1.0" width="448.000000pt" height="448.000000pt" viewBox="0 0 448.000000 448.000000" preserveAspectRatio="xMidYMid meet">
<metadata>
Created by potrace 1.16, written by Peter Selinger 2001-2019
<meta name="Producer" content="Online-Convert"/></metadata>
<g transform="translate(0.000000,448.000000) scale(0.100000,-0.100000)" fill="#000000" stroke="none">
<path d="M3373 3905 c-296 -54 -537 -238 -702 -540 -46 -84 -130 -286 -145 -347 l-6 -26 57 20 c191 67 336 61 423 -18 55 -50 75 -109 74 -219 -1 -145 -60 -296 -222 -565 -150 -251 -294 -423 -373 -446 -49 -14 -75 -7 -114 32 -110 110 -195 430 -326 1224 -58 353 -84 463 -140 577 -74 154 -186 247 -329 273 -161 30 -292 -18 -528 -192 -143 -106 -762 -650 -762 -670 0 -14 173 -238 184 -238 5 0 65 36 133 81 156 102 176 109 236 80 112 -54 212 -265 347 -736 27 -93 101 -366 165 -605 123 -461 165 -580 256 -731 95 -158 173 -240 278 -294 61 -30 100 -38 191 -37 381 6 856 394 1440 1177 352 474 562 855 656 1195 23 82 27 121 31 280 6 221 -11 330 -73 457 -66 139 -172 223 -332 264 -90 23 -304 25 -419 4z"/>
</g>
</svg>
