<?xml version="1.0" standalone="no"?>
<!DOCTYPE svg PUBLIC "-//W3C//DTD SVG 20010904//EN" "http://www.w3.org/TR/2001/REC-SVG-20010904/DTD/svg10.dtd">
<svg xmlns="http://www.w3.org/2000/svg" version="1.0" width="512.000000pt" height="512.000000pt" viewBox="0 0 512.000000 512.000000" preserveAspectRatio="xMidYMid meet">
<metadata>
Created by potrace 1.16, written by Peter Selinger 2001-2019
<meta name="Producer" content="Online-Convert"/></metadata>
<g transform="translate(0.000000,512.000000) scale(0.100000,-0.100000)" fill="#000000" stroke="none">
<path d="M2235 5105 c-462 -60 -885 -237 -1255 -523 -117 -91 -316 -287 -413 -407 -276 -342 -459 -746 -537 -1186 -28 -156 -39 -531 -21 -702 43 -399 182 -790 398 -1122 98 -150 184 -257 318 -394 419 -430 948 -690 1550 -760 134 -16 460 -13 605 4 748 93 1416 512 1833 1150 210 321 344 690 392 1075 20 162 20 477 0 640 -92 742 -510 1412 -1140 1826 -329 216 -695 350 -1085 399 -152 18 -501 18 -645 0z m1338 -1291 c165 -58 257 -252 257 -544 0 -91 -5 -139 -24 -211 -115 -453 -535 -1155 -903 -1510 -116 -112 -189 -167 -288 -216 -245 -123 -421 -5 -540 361 -18 56 -60 223 -95 371 -137 594 -201 817 -272 942 -61 108 -108 109 -247 4 -30 -23 -58 -41 -62 -41 -4 0 -30 36 -58 81 l-51 80 137 141 c424 431 597 532 761 443 56 -30 85 -63 122 -135 53 -104 76 -203 110 -472 69 -544 163 -893 246 -914 57 -14 116 37 209 179 141 217 247 511 230 638 -9 62 -43 121 -85 141 -44 23 -151 24 -210 3 -24 -8 -45 -13 -47 -11 -8 7 25 109 62 197 137 325 384 514 644 492 35 -3 82 -11 104 -19z"/>
</g>
</svg>
